<svg t="1722583246037" class="icon" viewBox="0 0 1024 1024" version="1.1" xmlns="http://www.w3.org/2000/svg" p-id="3341" width="64" height="64"><path d="M511.872 125.248V256h32V125.248l57.952 57.92 22.624-22.624L527.872 64l-96.448 96.416 22.624 22.624zM358.304 426.656l-57.92-57.92h99.04v-32h-99.04l57.792-57.824-22.624-22.624-96.416 96.448 96.544 96.544zM697.696 426.656l22.624 22.624 96.576-96.544-96.448-96.448-22.624 22.624 57.824 57.824h-99.872v32h99.872zM773.056 648.8a127.68 127.68 0 0 0-68.032-19.648c-32.736 0-65.44 12.48-90.4 37.44L592 689.248v-304.48c0-35.2-28.8-64-64-64s-64 28.8-64 64v140.8a63.36 63.36 0 0 0-49.216-23.68 63.36 63.36 0 0 0-37.088 12.064l-137.824 79.776A63.728 63.728 0 0 0 208 648.864v105.248c0 114.432 92.736 207.168 207.168 207.168 55.424 0 105.632-21.888 142.784-57.344l0.032 0.288 3.552-3.552 0.16-0.16 215.488-215.52a23.232 23.232 0 0 0-4.128-36.192zM535.872 880.768a174.304 174.304 0 0 1-120.704 48.48C318.56 929.248 240 850.688 240 754.08v-105.248c0-11.264 5.984-21.472 16.032-27.328l140.288-81.568a31.68 31.68 0 0 1 18.432-6.08c12.8 0 20.8 7.456 24.448 11.904l28.416 34.816A16 16 0 0 0 496 570.464V384.768c0-17.632 14.368-32 32-32s32 14.368 32 32v319.904c0 12.704 7.488 23.52 18.24 28.608a15.968 15.968 0 0 0 18.144-3.168l40.864-40.832a95.2 95.2 0 0 1 67.776-28.064c14.432 0 28.544 3.2 41.408 9.344l-210.56 210.208z" p-id="3342" fill="black"></path></svg>